<svg xmlns="http://www.w3.org/2000/svg" width="256" height="256" viewBox="0 0 256 256">
  <defs>
    <linearGradient id="blue" x1="0" y1="0" x2="1" y2="1">
      <stop offset="0" stop-color="#3c8bd9"/>
      <stop offset="1" stop-color="#14569f"/>
    </linearGradient>
  </defs>
  <rect x="10" y="10" width="236" height="236" rx="45" fill="url(#blue)" stroke="#0d3d78" stroke-width="12"/>
  <path d="M65 45h91l39 39v117c0 8-7 15-15 15H65c-8 0-15-7-15-15V60c0-8 7-15 15-15z" fill="#fff"/>
  <path d="M156 45v39h39" fill="#cfe4f7"/>
  <path d="M78 103h89M78 130h70M78 157h48" stroke="#8aa5bf" stroke-width="13" stroke-linecap="round"/>
  <circle cx="166" cy="166" r="57" fill="#f6b522" stroke="#fff" stroke-width="9"/>
  <path d="M166 130v38l25 16" fill="none" stroke="#273b51" stroke-width="12" stroke-linecap="round" stroke-linejoin="round"/>
  <path d="M123 147a48 48 0 0 1 81-15" fill="none" stroke="#247d3f" stroke-width="12" stroke-linecap="round"/>
  <path d="M205 112l3 28-28-4" fill="#247d3f"/>
</svg>
